<svg width="60" height="60" viewBox="0 0 60 60" fill="none" xmlns="http://www.w3.org/2000/svg">
<path d="M37 30.7825C36.97 27.6175 39.585 26.1 39.7 26.0225C38.2325 23.8725 35.945 23.58 35.13 23.5475C33.1825 23.3475 31.33 24.6925 30.3425 24.6925C29.3575 24.6925 27.8325 23.575 26.2175 23.605C24.095 23.6375 22.14 24.8375 21.0475 26.74C18.8425 30.565 20.4825 36.2325 22.63 39.335C23.68 40.8525 24.9325 42.56 26.5775 42.4975C28.16 42.435 28.7575 41.4725 30.6725 41.4725C32.5875 41.4725 33.1225 42.4975 34.7975 42.4675C36.5025 42.435 37.5825 40.9175 38.625 39.395C39.83 37.635 40.3275 35.9275 40.3575 35.84C40.32 35.8225 37.03 34.565 37 30.7825ZM33.855 21.4925C34.7275 20.4325 35.315 18.965 35.155 17.5C33.8975 17.55 32.375 18.3375 31.4725 19.3925C30.665 20.33 29.955 21.825 30.1475 23.2625C31.5475 23.37 32.98 22.5475 33.855 21.4925Z" fill="#0066CC"/>
<path d="M15 10C13.6739 10 12.4021 10.5268 11.4645 11.4645C10.5268 12.4021 10 13.6739 10 15V45C10 46.3261 10.5268 47.5979 11.4645 48.5355C12.4021 49.4732 13.6739 50 15 50H45C46.3261 50 47.5979 49.4732 48.5355 48.5355C49.4732 47.5979 50 46.3261 50 45V15C50 13.6739 49.4732 12.4021 48.5355 11.4645C47.5979 10.5268 46.3261 10 45 10H15ZM15 5H45C47.6522 5 50.1957 6.05357 52.0711 7.92893C53.9464 9.8043 55 12.3478 55 15V45C55 47.6522 53.9464 50.1957 52.0711 52.0711C50.1957 53.9464 47.6522 55 45 55H15C12.3478 55 9.8043 53.9464 7.92893 52.0711C6.05357 50.1957 5 47.6522 5 45V15C5 12.3478 6.05357 9.8043 7.92893 7.92893C9.8043 6.05357 12.3478 5 15 5Z" fill="#0066CC"/>
</svg>
