<svg width="50" height="50" viewBox="0 0 50 50" fill="none" xmlns="http://www.w3.org/2000/svg">
<path d="M14.5833 31.25H20.8333C21.3858 31.25 21.9157 31.0305 22.3064 30.6398C22.6971 30.2491 22.9166 29.7192 22.9166 29.1666C22.9166 28.6141 22.6971 28.0842 22.3064 27.6935C21.9157 27.3028 21.3858 27.0833 20.8333 27.0833H14.5833C14.0308 27.0833 13.5009 27.3028 13.1102 27.6935C12.7195 28.0842 12.5 28.6141 12.5 29.1666C12.5 29.7192 12.7195 30.2491 13.1102 30.6398C13.5009 31.0305 14.0308 31.25 14.5833 31.25ZM39.5833 10.4166H10.4166C8.75902 10.4166 7.16931 11.0751 5.99721 12.2472C4.82511 13.4193 4.16663 15.009 4.16663 16.6666V35.4166C4.16663 37.0742 4.82511 38.6639 5.99721 39.836C7.16931 41.0081 8.75902 41.6666 10.4166 41.6666H39.5833C41.2409 41.6666 42.8306 41.0081 44.0027 39.836C45.1748 38.6639 45.8333 37.0742 45.8333 35.4166V16.6666C45.8333 15.009 45.1748 13.4193 44.0027 12.2472C42.8306 11.0751 41.2409 10.4166 39.5833 10.4166ZM41.6666 35.4166C41.6666 35.9692 41.4471 36.4991 41.0564 36.8898C40.6657 37.2805 40.1358 37.5 39.5833 37.5H10.4166C9.86409 37.5 9.33419 37.2805 8.94349 36.8898C8.55279 36.4991 8.33329 35.9692 8.33329 35.4166V22.9166H41.6666V35.4166ZM41.6666 18.75H8.33329V16.6666C8.33329 16.1141 8.55279 15.5842 8.94349 15.1935C9.33419 14.8028 9.86409 14.5833 10.4166 14.5833H39.5833C40.1358 14.5833 40.6657 14.8028 41.0564 15.1935C41.4471 15.5842 41.6666 16.1141 41.6666 16.6666V18.75Z" fill="#6CCA4E"/>
</svg>
