<svg width="50" height="50" viewBox="0 0 50 50" fill="none" xmlns="http://www.w3.org/2000/svg">
<path d="M22.0647 5.2354C23.9472 4.47215 26.053 4.47215 27.9355 5.2354L43.5563 11.5687C44.2292 11.8413 44.8053 12.3085 45.211 12.9105C45.6167 13.5125 45.8334 14.222 45.8334 14.9479V35.0583C45.833 35.7839 45.6161 36.4929 45.2104 37.0945C44.8048 37.6961 44.2289 38.163 43.5563 38.4354L27.9355 44.7687C26.053 45.532 23.9472 45.532 22.0647 44.7687L6.44383 38.4354C5.77098 38.1629 5.19482 37.6957 4.78914 37.0936C4.38346 36.4916 4.16674 35.7822 4.16675 35.0562V14.95C4.16674 14.224 4.38346 13.5146 4.78914 12.9126C5.19482 12.3106 5.77098 11.8434 6.44383 11.5708L22.0647 5.2354ZM26.7605 8.13124C25.6315 7.67374 24.3687 7.67374 23.2397 8.13124L19.2501 9.74999L34.9313 15.8479L40.4918 13.7021L26.7584 8.13332L26.7605 8.13124ZM30.6063 17.5167L15.0313 11.4583L9.56258 13.675L25.0022 19.6792L30.6063 17.5167ZM7.29175 35.0583C7.29202 35.1617 7.32307 35.2627 7.38095 35.3484C7.43883 35.4341 7.52092 35.5007 7.61675 35.5396L23.2397 41.8729C23.3042 41.9 23.3709 41.925 23.4376 41.9479V22.425L7.29175 16.1458V35.0583ZM26.7605 41.8729L42.3834 35.5396C42.4796 35.5005 42.5619 35.4337 42.6198 35.3476C42.6777 35.2615 42.7086 35.16 42.7084 35.0562V16.1958L26.5626 22.4292V41.95C26.6291 41.9265 26.6951 41.8994 26.7605 41.8729Z" fill="#6CCA4E"/>
</svg>
